<svg width="199" height="48" viewBox="0 0 199 48" fill="none" xmlns="http://www.w3.org/2000/svg">
<path d="M0.6 8H4.84L6.8 29.52H6.88L8.96 8H13.76L15.84 29.52H15.92L17.88 8H21.68L18.84 36H13.36L11.36 17.12H11.28L9.28 36H3.44L0.6 8ZM33.9056 8H45.9056V12H38.3056V19.4H44.3456V23.4H38.3056V32H45.9056V36H33.9056V8ZM58.4369 8H65.0769C67.3435 8 68.9969 8.53333 70.0369 9.6C71.0769 10.64 71.5969 12.2533 71.5969 14.44V15.56C71.5969 17 71.3569 18.1733 70.8769 19.08C70.4235 19.9867 69.7169 20.64 68.7569 21.04V21.12C70.9435 21.8667 72.0369 23.8133 72.0369 26.96V29.36C72.0369 31.52 71.4635 33.1733 70.3169 34.32C69.1969 35.44 67.5435 36 65.3569 36H58.4369V8ZM64.5569 19.4C65.4369 19.4 66.0902 19.1733 66.5169 18.72C66.9702 18.2667 67.1969 17.5067 67.1969 16.44V14.88C67.1969 13.8667 67.0102 13.1333 66.6369 12.68C66.2902 12.2267 65.7302 12 64.9569 12H62.8369V19.4H64.5569ZM65.3569 32C66.1302 32 66.7035 31.8 67.0769 31.4C67.4502 30.9733 67.6369 30.2533 67.6369 29.24V26.8C67.6369 25.52 67.4102 24.64 66.9569 24.16C66.5302 23.6533 65.8102 23.4 64.7969 23.4H62.8369V32H65.3569ZM84.6088 8H96.2488V12H89.0088V19.8H94.6888V23.8H89.0088V36H84.6088V8ZM108.359 8H112.759V32H119.999V36H108.359V8ZM132.109 8H136.509V36H132.109V8ZM153.684 21.68L148.844 8H153.484L156.444 17.04H156.524L159.564 8H163.724L158.884 21.68L163.964 36H159.324L156.124 26.24H156.044L152.764 36H148.604L153.684 21.68Z" fill="#D00B0B"/>
<path d="M190.418 26.5513L172.464 36.9172L172.464 16.1854L190.418 26.5513Z" stroke="#0BA1D0" stroke-width="3"/>
<path d="M190.418 20.4487L172.464 30.8146L172.464 10.0828L190.418 20.4487Z" stroke="#D00B0B" stroke-width="3"/>
</svg>
