<svg width="128" height="35" viewBox="0 0 128 35" fill="none" xmlns="http://www.w3.org/2000/svg">
<path d="M84.8317 0V25.4947C87.9096 25.641 90.9793 25.8179 94.0405 26.0265V31.4319C89.1854 31.1011 84.3253 30.8501 79.4622 30.679V0H84.8317V0ZM127.5 0.00305317L120.508 16.565L127.498 34.9954L127.491 34.9987C125.452 34.7025 123.412 34.4206 121.371 34.1533L117.445 23.8091L113.482 33.193C111.604 32.9811 109.724 32.7809 107.839 32.5926L114.655 16.454L108.413 0.0033076H114.221L117.716 9.20963L121.603 0.00305317H127.5ZM61.034 30.4111V0.00279874H76.0227V5.45678H66.4035V12.5249H73.6817V17.9302H66.4035V30.4101L61.034 30.4111V30.4111ZM40.9844 5.45703V0.00254431H57.5918V5.45678H51.9726V30.5589C50.1804 30.6073 48.3901 30.6637 46.6037 30.7327V5.45703H40.9844ZM22.6285 32.3041V0.00356203H37.5425V5.45728H27.9972V12.8449C30.19 12.8162 33.3081 12.7839 35.248 12.7885V18.1943C32.8197 18.1638 30.0787 18.2284 27.9972 18.2496V26.4331C31.1766 26.1771 34.3585 25.9549 37.5425 25.7665V31.1723C32.5654 31.4657 27.5933 31.8432 22.6285 32.3046V32.3041ZM12.0955 19.8084L12.0953 0.00254431H17.4647V32.8139C15.5019 33.02 13.5426 33.2396 11.587 33.4714L5.36918 15.2211V34.253C3.57597 34.4917 1.78624 34.7402 0 35V0.00305317H5.10273L12.0953 19.8084H12.0955ZM98.4701 31.7578V0.00305317H103.84V32.2109C102.052 32.0481 100.263 31.898 98.4701 31.758V31.7578Z" fill="#DB202C"/>
</svg>
